<svg width="31" height="31" viewBox="0 0 31 31" fill="none" xmlns="http://www.w3.org/2000/svg">
<path d="M13 17.6565L20.375 10.2815C20.6042 10.0523 20.8958 9.93774 21.25 9.93774C21.6042 9.93774 21.8958 10.0523 22.125 10.2815C22.3542 10.5107 22.4688 10.8023 22.4688 11.1565C22.4688 11.5107 22.3542 11.8023 22.125 12.0315L13.875 20.2815C13.625 20.5315 13.3333 20.6565 13 20.6565C12.6667 20.6565 12.375 20.5315 12.125 20.2815L8.875 17.0315C8.64583 16.8023 8.53125 16.5107 8.53125 16.1565C8.53125 15.8023 8.64583 15.5107 8.875 15.2815C9.10417 15.0523 9.39583 14.9377 9.75 14.9377C10.1042 14.9377 10.3958 15.0523 10.625 15.2815L13 17.6565Z" fill="#F47013"/>
</svg>
